<svg width="360" height="369" viewBox="0 0 360 369" fill="none" xmlns="http://www.w3.org/2000/svg">
<circle cx="180" cy="180" r="178" fill="#525E75" stroke="#525E75" stroke-width="4"/>
<path d="M122.936 335.075C128.043 329.112 132.716 308.338 133.913 299.13L150.869 311.304C153.423 325.685 144.885 345.152 139.565 353.043L121.739 347.789L122.936 335.075Z" fill="#F3EFE0" stroke="#525E75" stroke-width="3"/>
<path d="M149.241 69.0082C81.3148 70.9529 68.5537 124.608 70.664 151.193C70.664 151.193 93.7464 215.161 114.377 253.327C134.463 290.485 174.039 343.543 174.039 343.543L218.727 325.973C245.555 329.138 281.721 304.858 296.45 292.323C271.101 290.072 262.64 217.67 262.64 217.67C262.64 217.67 254.898 59.4644 149.241 69.0082Z" fill="#525E75" stroke="#F3EFE0" stroke-width="4"/>
<path d="M130.45 300.769C125.642 282.344 148.043 258.726 159.844 249.22L178.35 241.436C193.58 247.337 228 258 242 282C242 282 217.549 283.546 217.826 294.348L253.913 344.348C253.913 344.348 224.733 354.788 205.217 357.362C185.522 359.961 154.348 357.362 154.348 357.362C151.498 347.223 150.146 335.909 148.111 314.889L130.45 300.769Z" fill="#525E75"/>
<path d="M147.223 293.142C147.023 300.032 147.391 307.448 148.111 314.889M148.111 314.889C150.146 335.909 151.498 347.223 154.348 357.362C154.348 357.362 185.522 359.961 205.217 357.362C224.733 354.788 253.913 344.348 253.913 344.348L217.826 294.348C217.549 283.546 242 282 242 282C228 258 193.58 247.337 178.35 241.436L159.844 249.22C148.043 258.726 125.642 282.344 130.45 300.769L148.111 314.889Z" stroke="#F3EFE0" stroke-width="4"/>
<path d="M163.428 253.262C159.388 250.425 145.485 235.238 145.485 235.238L146.591 228.153L156.749 224.616L173.321 224.429C173.321 224.429 174.974 231.264 180.045 243.903C185.115 256.541 167.468 256.098 163.428 253.262Z" fill="#F3EFE0" stroke="#525E75" stroke-width="4"/>
<path d="M121.883 238.827C87.1408 234.956 58.703 212.759 71.5779 170.416C66.1044 128.682 91.8942 95.8801 131.356 93.3244C176.609 98.7275 197.228 152.701 198.067 179.411C214.173 158.176 241.235 202.578 200.492 206.258C183.585 228.954 151.809 242.162 121.883 238.827Z" fill="#F3EFE0" stroke="#525E75" stroke-width="4"/>
<path d="M125.424 216.747C131.85 218.454 146.61 218.103 154.237 203.037" stroke="#525E75" stroke-width="4"/>
<path fill-rule="evenodd" clip-rule="evenodd" d="M95.2876 167.332L95.3129 158.291L99.6607 158.303L99.6343 167.757L97.8766 176.791L93.6088 175.961L95.2876 167.332ZM151.066 170.968L151.547 161.479L155.889 161.699L155.398 171.398L154.124 179.986L149.823 179.349L151.066 170.968ZM114.559 183.888C114.939 177.593 118.402 171.128 122.469 167.634L125.302 170.932C122.111 173.673 119.207 179.051 118.899 184.15C118.748 186.65 119.228 188.949 120.46 190.826C121.677 192.681 123.761 194.331 127.21 195.323L126.009 199.501C121.729 198.271 118.702 196.073 116.824 193.211C114.962 190.372 114.366 187.086 114.559 183.888Z" fill="#525E75"/>
<path d="M94.7568 147.271C96.0428 147.009 99.1736 146.872 101.409 148.416M149.471 148.877C150.757 148.615 155.148 147.927 157.383 149.472" stroke="#525E75" stroke-width="4"/>
<path d="M101.295 346.917C109.285 332.621 121.564 330.033 122.44 338.512C122.761 340.104 123.1 343.7 121.892 345.348L117.158 344.096C115.197 346.584 110.56 351.843 107.698 352.975C100.829 355.218 100.346 349.661 101.295 346.917Z" fill="#F3EFE0"/>
<path d="M274.699 333.5L237.127 283C221.465 284.474 217.418 290.474 217.714 294.006L249.199 346.5L262.699 340L274.699 333.5Z" fill="#F3EFE0"/>
<path fill-rule="evenodd" clip-rule="evenodd" d="M78.4797 339.784C78.2871 339.773 78.0979 339.755 77.9119 339.729C76.3945 339.517 75.2072 338.8 74.3898 337.761C72.8785 335.841 72.9044 333.217 73.2091 331.601L73.2461 331.405L73.3201 331.22C76.4393 323.422 81.3856 319.569 86.0849 318.542C88.3979 318.037 90.6366 318.227 92.4605 318.993C93.5033 319.431 94.4654 320.087 95.1886 320.947C95.2226 320.933 95.2565 320.918 95.2903 320.904C98.11 319.723 101.009 319.43 103.436 320.529C105.286 321.366 106.585 322.884 107.307 324.854C110.134 324.179 112.867 324.286 115.124 325.462C117.51 326.705 119.006 328.953 119.536 331.851C119.781 331.947 120.022 332.056 120.257 332.178C122.619 333.404 124.01 335.742 124.342 338.717C124.548 339.779 124.748 341.408 124.715 343.066C124.683 344.67 124.431 346.771 123.322 348.284L122.496 349.41L116.856 347.918C115.67 349.354 114.069 351.173 112.377 352.87C111.307 353.944 110.176 354.992 109.073 355.871C107.995 356.729 106.836 357.513 105.714 357.957L105.656 357.98L105.596 357.999C103.356 358.731 101.391 358.91 99.7194 358.493C98.4001 358.165 97.3694 357.489 96.6131 356.615C91.8807 357.893 88.3073 356.88 86.147 354.302C84.7032 352.58 84.1052 350.382 84.1388 348.341C83.5959 348.469 83.0833 348.544 82.5999 348.566C80.9441 348.638 79.4843 348.056 78.609 346.706C77.854 345.541 77.7741 344.148 77.8443 343.071C77.9183 341.935 78.1874 340.777 78.4734 339.805L78.4797 339.784Z" fill="#F3EFE0"/>
<path fill-rule="evenodd" clip-rule="evenodd" d="M95.3319 325.441L95.941 325.113C96.2569 324.952 96.5675 324.808 96.8719 324.681C99.0833 323.755 100.724 323.795 101.747 324.259C102.414 324.561 103.047 325.147 103.45 326.221C97.628 328.922 91.2241 334.671 85.846 343.344C84.1263 344.179 83.042 344.448 82.421 344.475C82.2026 344.484 82.0817 344.462 82.0286 344.448C81.981 344.343 81.8859 344.019 81.9303 343.338C81.974 342.667 82.1365 341.89 82.3571 341.114C82.7584 340.277 83.1695 339.472 83.5885 338.699L83.6332 338.683L83.9732 338.003C87.5938 331.567 91.758 327.463 95.3319 325.441ZM78.4797 339.784C78.2871 339.773 78.0979 339.755 77.9119 339.729C76.3945 339.517 75.2072 338.8 74.3898 337.761C72.8785 335.841 72.9044 333.217 73.2091 331.601L73.2461 331.405L73.3201 331.22C76.4393 323.422 81.3856 319.569 86.0849 318.542C88.3979 318.037 90.6366 318.227 92.4605 318.993C93.5033 319.431 94.4654 320.087 95.1886 320.947C95.2226 320.933 95.2565 320.918 95.2903 320.904C98.11 319.723 101.009 319.43 103.436 320.529C105.286 321.366 106.585 322.884 107.307 324.854C110.134 324.179 112.867 324.286 115.124 325.462C117.51 326.705 119.006 328.953 119.536 331.851C119.781 331.947 120.022 332.056 120.257 332.178C122.619 333.404 124.01 335.742 124.342 338.717C124.548 339.779 124.748 341.408 124.715 343.066C124.683 344.67 124.431 346.771 123.322 348.284L122.496 349.41L116.856 347.918C115.67 349.354 114.069 351.173 112.377 352.87C111.307 353.944 110.176 354.992 109.073 355.871C107.995 356.729 106.836 357.513 105.714 357.957L105.656 357.98L105.596 357.999C103.356 358.731 101.391 358.91 99.7194 358.493C98.4001 358.165 97.3694 357.489 96.6131 356.615C91.8807 357.893 88.3073 356.88 86.147 354.302C84.7032 352.58 84.1052 350.382 84.1388 348.341C83.5959 348.469 83.0833 348.544 82.5999 348.566C80.9441 348.638 79.4843 348.056 78.609 346.706C77.854 345.541 77.7741 344.148 77.8443 343.071C77.9183 341.935 78.1874 340.777 78.4734 339.805L78.4797 339.784ZM91.4153 323.044C91.2588 322.947 91.0796 322.854 90.8752 322.769C89.9142 322.365 88.5444 322.196 86.959 322.542C83.8915 323.213 79.9286 325.866 77.2013 332.544C77.031 333.649 77.2035 334.716 77.6074 335.229C77.7589 335.421 77.9892 335.605 78.4792 335.674C78.935 335.738 79.6564 335.703 80.7264 335.376C81.6409 333.696 83.1136 331.392 85.0083 329.086C86.7544 326.961 88.9227 324.756 91.4153 323.044ZM88.4646 346.934C87.9953 348.361 88.21 350.39 89.2851 351.672C90.0744 352.614 91.7114 353.566 95.016 352.798C94.8085 351.128 95.0703 349.46 95.4882 348.252L95.5475 348.08L95.6359 347.922C100.5 339.218 106.815 333.802 112.37 331.975C113.306 331.667 114.247 331.454 115.17 331.352C114.728 330.214 114.027 329.508 113.231 329.093C111.903 328.401 109.816 328.26 107.051 329.183C101.568 331.015 94.4035 336.752 88.4646 346.934ZM99.3058 349.749C98.9123 351.022 98.9306 352.681 99.5019 353.645C99.7462 354.057 100.099 354.368 100.71 354.52C101.376 354.686 102.496 354.695 104.261 354.128C104.82 353.896 105.587 353.412 106.523 352.668C107.463 351.919 108.474 350.986 109.478 349.979C111.486 347.965 113.375 345.747 114.49 344.332L115.322 343.277L120.463 344.637C120.551 344.184 120.608 343.631 120.621 342.984C120.648 341.623 120.473 340.247 120.309 339.43L120.289 339.334L120.279 339.237C120.076 337.268 119.277 336.282 118.371 335.812C117.377 335.296 115.793 335.159 113.649 335.864C109.397 337.263 103.83 341.731 99.3058 349.749Z" fill="#525E75"/>
<path d="M156.077 68.6955C151.507 70.2299 141.147 76.2778 136.267 88.1933" stroke="#F3EFE0" stroke-width="2"/>
</svg>
