<svg width="360" height="369" viewBox="0 0 360 369" fill="none" xmlns="http://www.w3.org/2000/svg">
<circle cx="180" cy="180" r="178" fill="#F3EFE0" stroke="#F3EFE0" stroke-width="4"/>
<path d="M121.254 338.336C126.603 331.811 131.498 309.076 132.751 299L150.512 312.323C153.187 328.06 144.244 349.364 138.672 358L120 352.25L121.254 338.336Z" fill="#F3EFE0" stroke="#434242" stroke-width="3"/>
<path d="M149.241 69.0082C81.3149 70.9529 68.5538 124.608 70.6641 151.193C70.6641 151.193 93.7464 215.161 114.377 253.327C134.463 290.485 174.039 343.543 174.039 343.543L218.727 325.973C245.555 329.138 281.721 304.858 296.45 292.323C271.101 290.072 262.64 217.67 262.64 217.67C262.64 217.67 254.898 59.4644 149.241 69.0082Z" fill="#434242" stroke="#F3EFE0" stroke-width="4"/>
<path d="M130.449 300.769C125.642 282.344 148.043 258.726 159.844 249.22L178.35 241.436C193.58 247.337 228 258 242 282C242 282 217.549 283.546 217.826 294.348L253 342.5C253 342.5 224.733 354.788 205.217 357.362C185.522 359.961 154.5 356 154.5 356C151.65 345.861 150.146 335.909 148.111 314.889L130.449 300.769Z" fill="#434242"/>
<path d="M147.223 293.142C147.023 300.032 147.391 307.448 148.111 314.889M148.111 314.889C150.146 335.909 151.65 345.861 154.5 356C154.5 356 185.522 359.961 205.217 357.362C224.733 354.788 253 342.5 253 342.5L217.826 294.348C217.549 283.546 242 282 242 282C228 258 193.58 247.337 178.35 241.436L159.844 249.22C148.043 258.726 125.642 282.344 130.449 300.769L148.111 314.889Z" stroke="#F3EFE0" stroke-width="4"/>
<path d="M163.428 253.262C159.388 250.425 145.485 235.238 145.485 235.238L146.591 228.153L156.749 224.616L173.321 224.429C173.321 224.429 174.974 231.264 180.045 243.903C185.115 256.541 167.468 256.098 163.428 253.262Z" fill="#F3EFE0" stroke="#434242" stroke-width="4"/>
<path d="M121.883 238.827C87.1409 234.956 58.7031 212.759 71.5779 170.416C66.1044 128.682 91.8943 95.8801 131.356 93.3244C176.609 98.7275 197.228 152.701 198.067 179.411C214.173 158.176 241.235 202.578 200.492 206.258C183.585 228.954 151.809 242.162 121.883 238.827Z" fill="#F3EFE0" stroke="#434242" stroke-width="4"/>
<path d="M125.424 216.747C131.85 218.454 146.61 218.103 154.237 203.037" stroke="#434242" stroke-width="4"/>
<path fill-rule="evenodd" clip-rule="evenodd" d="M95.2876 167.332L95.3129 158.291L99.6607 158.303L99.6343 167.757L97.8766 176.791L93.6088 175.961L95.2876 167.332ZM151.066 170.968L151.547 161.479L155.889 161.699L155.398 171.398L154.124 179.986L149.823 179.349L151.066 170.968ZM114.559 183.888C114.939 177.593 118.402 171.128 122.469 167.634L125.302 170.932C122.111 173.673 119.207 179.051 118.899 184.15C118.748 186.65 119.228 188.949 120.46 190.826C121.677 192.681 123.761 194.331 127.21 195.323L126.009 199.501C121.729 198.271 118.702 196.073 116.824 193.211C114.962 190.372 114.366 187.086 114.559 183.888Z" fill="#434242"/>
<path d="M94.7566 147.271C96.0427 147.009 99.1734 146.872 101.408 148.416M149.471 148.877C150.757 148.615 155.148 147.927 157.382 149.472" stroke="#434242" stroke-width="4"/>
<path d="M276 333L237.009 284.596C222.065 286.919 218.515 293.273 218.995 296.874L250.5 347.5L265 340L276 333Z" fill="#F3EFE0" stroke="#434242" stroke-width="3"/>
<path fill-rule="evenodd" clip-rule="evenodd" d="M77.4362 343.523C77.2437 343.513 77.0544 343.494 76.8684 343.468C75.3511 343.256 74.1637 342.539 73.3464 341.501C71.835 339.581 71.8609 336.957 72.1657 335.34L72.2026 335.144L72.2767 334.959C75.3959 327.161 80.3421 323.308 85.0415 322.281C87.3545 321.776 89.5931 321.967 91.4171 322.733C92.4598 323.17 93.4219 323.827 94.1452 324.686C94.1791 324.672 94.213 324.657 94.2469 324.643C97.0665 323.463 99.9659 323.169 102.393 324.268C104.243 325.106 105.542 326.624 106.263 328.593C109.09 327.918 111.824 328.025 114.08 329.201C116.467 330.444 117.962 332.692 118.493 335.59C118.738 335.686 118.978 335.795 119.214 335.917C121.576 337.143 122.966 339.482 123.298 342.457C123.505 343.518 123.705 345.147 123.671 346.806C123.639 348.409 123.387 350.51 122.278 352.023L121.453 353.149L115.813 351.657C114.627 353.093 113.026 354.912 111.334 356.61C110.263 357.683 109.133 358.732 108.03 359.61C106.952 360.469 105.792 361.252 104.67 361.696L104.612 361.719L104.553 361.738C102.312 362.47 100.348 362.649 98.676 362.233C97.3566 361.904 96.3259 361.229 95.5697 360.354C90.8373 361.632 87.2638 360.619 85.1036 358.042C83.6598 356.319 83.0618 354.121 83.0953 352.08C82.5525 352.208 82.0399 352.284 81.5564 352.305C79.9006 352.377 78.4409 351.795 77.5656 350.445C76.8105 349.281 76.7307 347.887 76.8008 346.81C76.8749 345.674 77.1439 344.516 77.4299 343.545L77.4362 343.523Z" fill="#F3EFE0"/>
<path fill-rule="evenodd" clip-rule="evenodd" d="M94.2885 329.18L94.8975 328.853C95.2134 328.692 95.524 328.548 95.8284 328.42C98.0399 327.494 99.6805 327.535 100.704 327.998C101.371 328.3 102.004 328.887 102.406 329.96C96.5846 332.662 90.1806 338.411 84.8026 347.083C83.0829 347.918 81.9985 348.187 81.3776 348.214C81.1591 348.224 81.0382 348.201 80.9851 348.187C80.9376 348.082 80.8424 347.758 80.8868 347.077C80.9305 346.406 81.093 345.629 81.3137 344.854C81.7149 344.016 82.126 343.211 82.5451 342.439L82.5897 342.422L82.9298 341.742C86.5503 335.306 90.7145 331.202 94.2885 329.18ZM77.4362 343.523C77.2437 343.513 77.0544 343.494 76.8684 343.468C75.3511 343.256 74.1637 342.539 73.3464 341.501C71.835 339.581 71.8609 336.957 72.1657 335.34L72.2026 335.144L72.2767 334.959C75.3959 327.161 80.3421 323.308 85.0415 322.281C87.3545 321.776 89.5931 321.967 91.4171 322.733C92.4598 323.17 93.4219 323.827 94.1452 324.686C94.1791 324.672 94.213 324.657 94.2469 324.643C97.0665 323.463 99.9659 323.169 102.393 324.268C104.243 325.106 105.542 326.624 106.263 328.593C109.09 327.918 111.824 328.025 114.08 329.201C116.467 330.444 117.962 332.692 118.493 335.59C118.738 335.686 118.978 335.795 119.214 335.917C121.576 337.143 122.966 339.482 123.298 342.457C123.505 343.518 123.705 345.147 123.671 346.806C123.639 348.409 123.387 350.51 122.278 352.023L121.453 353.149L115.813 351.657C114.627 353.093 113.026 354.912 111.334 356.61C110.263 357.683 109.133 358.732 108.03 359.61C106.952 360.469 105.792 361.252 104.67 361.696L104.612 361.719L104.553 361.738C102.312 362.47 100.348 362.649 98.676 362.233C97.3566 361.904 96.3259 361.229 95.5697 360.354C90.8373 361.632 87.2638 360.619 85.1036 358.042C83.6598 356.319 83.0618 354.121 83.0953 352.08C82.5525 352.208 82.0399 352.284 81.5564 352.305C79.9006 352.377 78.4409 351.795 77.5656 350.445C76.8105 349.281 76.7307 347.887 76.8008 346.81C76.8749 345.674 77.1439 344.516 77.4299 343.545L77.4362 343.523ZM90.3719 326.783C90.2154 326.686 90.0361 326.594 89.8317 326.508C88.8707 326.104 87.501 325.935 85.9156 326.282C82.8481 326.952 78.8851 329.605 76.1578 336.283C75.9875 337.388 76.16 338.455 76.5639 338.968C76.7155 339.161 76.9458 339.345 77.4358 339.413C77.8915 339.477 78.613 339.442 79.683 339.115C80.5974 337.435 82.0701 335.131 83.9648 332.825C85.7109 330.7 87.8793 328.495 90.3719 326.783ZM87.4211 350.673C86.9519 352.1 87.1666 354.129 88.2416 355.411C89.0309 356.353 90.6679 357.306 93.9726 356.537C93.765 354.868 94.0269 353.199 94.4447 351.991L94.504 351.819L94.5925 351.661C99.4569 342.957 105.772 337.541 111.327 335.714C112.263 335.406 113.203 335.193 114.127 335.092C113.685 333.953 112.984 333.247 112.188 332.832C110.86 332.14 108.773 331.999 106.008 332.923C100.524 334.754 93.3601 340.491 87.4211 350.673ZM98.2623 353.489C97.8688 354.761 97.8871 356.42 98.4584 357.384C98.7028 357.796 99.0555 358.107 99.6665 358.26C100.333 358.426 101.452 358.434 103.217 357.867C103.776 357.635 104.544 357.152 105.479 356.407C106.42 355.658 107.43 354.725 108.434 353.718C110.442 351.704 112.332 349.486 113.446 348.072L114.278 347.016L119.42 348.376C119.507 347.923 119.565 347.37 119.578 346.723C119.605 345.362 119.43 343.986 119.265 343.17L119.246 343.074L119.236 342.976C119.032 341.007 118.233 340.021 117.327 339.551C116.334 339.035 114.749 338.899 112.606 339.604C108.354 341.002 102.787 345.47 98.2623 353.489Z" fill="#434242"/>
<path d="M156.077 68.6955C151.507 70.2299 141.147 76.2778 136.267 88.1933" stroke="#F3EFE0" stroke-width="2"/>
</svg>
